<svg width="149" height="55" viewBox="0 0 149 55" fill="none" xmlns="http://www.w3.org/2000/svg">
<rect opacity="0.01" x="0.5" width="148" height="55" fill="black"/>
<rect opacity="0.01" x="47" width="55" height="55" fill="black"/>
<path d="M74.4999 25.2083C79.5625 25.2083 83.6666 21.1043 83.6666 16.0417C83.6666 10.9791 79.5625 6.875 74.4999 6.875C69.4373 6.875 65.3333 10.9791 65.3333 16.0417C65.3333 21.1043 69.4373 25.2083 74.4999 25.2083Z" fill="black"/>
<path d="M88.2499 48.1263C89.5156 48.1263 90.5416 47.1003 90.5416 45.8346C90.5416 36.9751 83.3595 29.793 74.4999 29.793C65.6404 29.793 58.4583 36.9751 58.4583 45.8346C58.4583 47.1003 59.4843 48.1263 60.7499 48.1263H88.2499Z" fill="black"/>
</svg>
