<svg width="149" height="55" viewBox="0 0 149 55" fill="none" xmlns="http://www.w3.org/2000/svg">
<rect opacity="0.01" x="0.5" width="148" height="55" fill="black"/>
<path d="M73.6668 29.6897C81.9443 29.6897 85.8396 34.7586 85.8396 34.7586C89.0045 34.0345 90.9521 33.3103 91.6825 33.3103C92.6563 33.069 93.3867 32.1034 93.1432 30.8966L90.9522 10.6207C90.9522 10.6207 84.1354 7 73.6668 7C63.1983 7 56.3815 10.8621 56.3815 10.8621L54.1904 31.1379C54.1904 32.1034 54.6773 33.069 55.6512 33.5517C56.3815 33.7931 58.0857 34.5172 61.2506 35C61.4941 35 65.3894 29.6897 73.6668 29.6897ZM66.3632 16.8966H71.2323V12.069H76.1014V16.8966H80.9705V21.7241H76.1014V26.5517H71.2323V21.7241H66.3632V16.8966Z" fill="black"/>
<path d="M73.6904 29C68.4654 29 64.1904 33.275 64.1904 38.5C64.1904 43.725 68.4654 48 73.6904 48C78.9154 48 83.1904 43.725 83.1904 38.5C83.1904 33.275 78.9154 29 73.6904 29ZM73.6904 40.875C72.2654 40.875 71.3154 39.925 71.3154 38.5C71.3154 37.075 72.2654 36.125 73.6904 36.125C75.1154 36.125 76.0654 37.075 76.0654 38.5C76.0654 39.925 75.1154 40.875 73.6904 40.875Z" fill="black"/>
</svg>
