<svg width="149" height="55" viewBox="0 0 149 55" fill="none" xmlns="http://www.w3.org/2000/svg">
<rect opacity="0.01" x="0.5" width="148" height="55" fill="black"/>
<path d="M103.298 11.269L100.946 8.91744C100.883 8.85445 100.808 8.80448 100.726 8.77039C100.644 8.7363 100.555 8.71875 100.466 8.71875C100.377 8.71875 100.289 8.7363 100.207 8.77039C100.125 8.80448 100.05 8.85445 99.9867 8.91744L97.6352 11.269C97.5403 11.3638 97.4757 11.4847 97.4496 11.6163C97.4234 11.7479 97.4368 11.8843 97.4882 12.0082C97.5395 12.1322 97.6264 12.2381 97.738 12.3127C97.8495 12.3872 97.9807 12.427 98.1149 12.427H99.5621V19.2517C99.5621 19.4915 99.6574 19.7216 99.827 19.8911C99.9966 20.0607 100.227 20.156 100.466 20.156C100.706 20.156 100.936 20.0607 101.106 19.8911C101.275 19.7216 101.371 19.4915 101.371 19.2517V12.427H102.818C102.952 12.427 103.083 12.3872 103.195 12.3127C103.306 12.2381 103.393 12.1322 103.445 12.0082C103.496 11.8843 103.509 11.7479 103.483 11.6163C103.457 11.4847 103.393 11.3638 103.298 11.269Z" fill="black"/>
<path d="M85.7043 22.5142C86.5957 22.5142 87.4671 22.2499 88.2083 21.7547C88.9495 21.2594 89.5272 20.5555 89.8684 19.7319C90.2095 18.9084 90.2988 18.0021 90.1249 17.1278C89.951 16.2535 89.5217 15.4504 88.8914 14.8201C88.261 14.1898 87.4579 13.7605 86.5836 13.5866C85.7093 13.4127 84.8031 13.502 83.9795 13.8431C83.156 14.1842 82.4521 14.7619 81.9568 15.5031C81.4616 16.2443 81.1973 17.1158 81.1973 18.0072C81.1986 19.2021 81.6739 20.3477 82.5189 21.1926C83.3638 22.0376 84.5094 22.5128 85.7043 22.5142ZM85.7043 15.3087C86.238 15.3086 86.7597 15.4669 87.2035 15.7634C87.6473 16.0599 87.9932 16.4813 88.1974 16.9744C88.4017 17.4675 88.4551 18.01 88.351 18.5335C88.2469 19.057 87.9899 19.5378 87.6125 19.9152C87.2351 20.2926 86.7543 20.5496 86.2309 20.6537C85.7074 20.7579 85.1649 20.7044 84.6718 20.5002C84.1787 20.296 83.7572 19.9501 83.4607 19.5064C83.1642 19.0626 83.0059 18.5409 83.0059 18.0072C83.0067 17.2918 83.2912 16.6059 83.7971 16.1C84.303 15.5941 84.9889 15.3095 85.7043 15.3087Z" fill="black"/>
<path d="M100.466 21.8164C100.226 21.8164 99.996 21.9117 99.8264 22.0813C99.6568 22.2509 99.5615 22.4809 99.5615 22.7207V24.3543C99.5615 24.5942 99.6568 24.8242 99.8264 24.9938C99.996 25.1634 100.226 25.2587 100.466 25.2587C100.706 25.2587 100.936 25.1634 101.105 24.9938C101.275 24.8242 101.37 24.5942 101.37 24.3543V22.7207C101.37 22.4809 101.275 22.2509 101.105 22.0813C100.936 21.9117 100.706 21.8164 100.466 21.8164Z" fill="black"/>
<path d="M47.6902 47.8115H82.8544C83.8328 47.8104 84.7708 47.4212 85.4626 46.7294C86.1545 46.0376 86.5436 45.0996 86.5447 44.1212V35.6203L86.5136 29.3974H86.9027C87.1835 29.3986 87.4563 29.3035 87.6755 29.128C87.8948 28.9525 88.0472 28.7071 88.1075 28.4327L88.6701 25.9234C88.8031 25.8718 88.9355 25.8166 89.0673 25.7578L91.2401 27.1345C91.4766 27.2861 91.758 27.352 92.0373 27.3212C92.3166 27.2903 92.5768 27.1647 92.7746 26.9651L94.4702 25.2693C94.6697 25.0716 94.7954 24.8115 94.8263 24.5324C94.8572 24.2532 94.7915 23.9719 94.6401 23.7354L93.2628 21.5623C93.3216 21.4309 93.3767 21.2984 93.4283 21.165L95.938 20.6025C96.2123 20.5422 96.4577 20.3898 96.6332 20.1705C96.8087 19.9513 96.9038 19.6785 96.9025 19.3976V16.9997C96.9038 16.7188 96.8087 16.446 96.6331 16.2267C96.4576 16.0075 96.2122 15.855 95.9379 15.7948L93.4284 15.2322C93.3769 15.099 93.3218 14.9666 93.263 14.835L94.6399 12.6619C94.7914 12.4254 94.8572 12.1441 94.8263 11.8649C94.7954 11.5857 94.6697 11.3255 94.4701 11.1278L92.7745 9.43222C92.5769 9.2327 92.3167 9.10699 92.0376 9.07605C91.7584 9.04512 91.4771 9.11083 91.2405 9.26222L89.0673 10.6395C88.936 10.5807 88.8035 10.5256 88.67 10.474L88.1075 7.96453C88.0472 7.69023 87.8948 7.44487 87.6755 7.26935C87.4563 7.09384 87.1835 6.99878 86.9027 7.00001H84.5046C84.2238 6.99878 83.951 7.09385 83.7317 7.26939C83.5125 7.44492 83.36 7.6903 83.2998 7.96462L82.7373 10.4739C82.604 10.5255 82.4715 10.5807 82.3399 10.6395L80.1666 9.26195C79.93 9.11071 79.6487 9.0451 79.3696 9.07604C79.0906 9.10699 78.8305 9.23263 78.6328 9.43202L76.9372 11.1278C76.7377 11.3255 76.612 11.5856 76.5811 11.8647C76.5502 12.1439 76.6159 12.4252 76.7674 12.6617L78.1446 14.835C78.0858 14.9664 78.0306 15.0988 77.9792 15.2322L76.3261 15.6028C75.8397 13.7724 74.8594 12.111 73.4924 10.8003C71.5036 8.85513 68.8326 7.76557 66.0507 7.76467H65.7855C63.162 7.76785 60.6366 8.76232 58.7154 10.5488C56.7941 12.3353 55.619 14.7819 55.4254 17.3982H47.6902C46.7119 17.3993 45.7739 17.7885 45.0821 18.4803C44.3902 19.1721 44.0011 20.1101 44 21.0885V44.1212C44.0011 45.0996 44.3902 46.0376 45.0821 46.7294C45.7739 47.4212 46.7119 47.8104 47.6902 47.8115ZM78.6827 16.928C78.8896 16.882 79.081 16.7833 79.2384 16.6414C79.3958 16.4996 79.5138 16.3194 79.581 16.1184C79.6715 15.8535 79.7793 15.5948 79.9036 15.3439C79.9973 15.1537 80.0408 14.9427 80.0299 14.7309C80.0191 14.5192 79.9542 14.3137 79.8416 14.1341L78.541 12.0817L79.5868 11.0359L81.6396 12.3369C81.8187 12.4508 82.0243 12.5164 82.2362 12.5272C82.4482 12.538 82.6594 12.4936 82.8491 12.3984C83.0998 12.2742 83.3584 12.1665 83.6231 12.0761C83.8242 12.0089 84.0045 11.8908 84.1465 11.7333C84.2884 11.5758 84.3872 11.3842 84.4331 11.1772L84.9641 8.80853H86.4431L86.9742 11.1774C87.0201 11.3843 87.1188 11.5758 87.2607 11.7332C87.4026 11.8907 87.5828 12.0088 87.7838 12.0759C88.0486 12.1664 88.3072 12.2741 88.558 12.3983C88.7483 12.492 88.9593 12.5355 89.1712 12.5247C89.383 12.5139 89.5885 12.4492 89.7683 12.3366L91.8206 11.0359L92.8664 12.0817L91.566 14.1337C91.4532 14.3134 91.3883 14.5189 91.3774 14.7307C91.3665 14.9426 91.41 15.1536 91.5038 15.3439C91.628 15.5947 91.7358 15.8534 91.8264 16.1183C91.8936 16.3193 92.0117 16.4995 92.1692 16.6415C92.3267 16.7834 92.5182 16.8821 92.7251 16.9281L95.0938 17.459V18.9382L92.7259 19.469C92.5188 19.5147 92.3271 19.6133 92.1695 19.7552C92.0119 19.8971 91.8937 20.0774 91.8265 20.2785C91.7358 20.5437 91.6279 20.8026 91.5035 21.0537C91.4085 21.2435 91.3643 21.4547 91.3752 21.6667C91.3861 21.8786 91.4518 22.0842 91.5658 22.2632L92.8664 24.3154L91.8207 25.3613L89.7688 24.0611C89.5892 23.9483 89.3837 23.8833 89.1719 23.8724C88.9601 23.8615 88.749 23.905 88.5587 23.9987C88.3078 24.1228 88.0491 24.2306 87.7843 24.3212C87.5832 24.3884 87.4028 24.5065 87.2609 24.664C87.1189 24.8215 87.0202 25.0131 86.9742 25.2201L86.4432 27.5888H84.9641L84.4332 25.2199C84.3872 25.013 84.2885 24.8215 84.1466 24.664C84.0047 24.5066 83.8245 24.3885 83.6235 24.3213C83.3586 24.2308 83.1 24.123 82.8491 23.9988C82.6589 23.905 82.4479 23.8614 82.2361 23.8722C82.0243 23.8831 81.8188 23.9479 81.6392 24.0606L79.5867 25.3613L78.541 24.3154L79.8417 22.263C79.9557 22.0839 80.0213 21.8783 80.0321 21.6662C80.043 21.4542 79.9986 21.2429 79.9035 21.0531C79.7793 20.8023 79.6715 20.5437 79.5809 20.2789C79.5137 20.0779 79.3956 19.8976 79.2381 19.7557C79.0806 19.6138 78.8891 19.515 78.6821 19.4691L76.3135 18.9382V17.459L78.6827 16.928ZM60.1599 17.0211C60.6199 14.2356 62.8281 12.4359 65.7854 12.4359H66.0507C69.008 12.4359 71.2162 14.2357 71.6762 17.0212C71.6837 17.0677 71.6809 17.1153 71.6682 17.1607C71.6555 17.206 71.633 17.2481 71.6025 17.284C71.5719 17.3198 71.5339 17.3486 71.4911 17.3683C71.4483 17.3881 71.4018 17.3983 71.3547 17.3983H60.4814C60.4343 17.3983 60.3877 17.3881 60.3449 17.3683C60.3022 17.3486 60.2642 17.3198 60.2336 17.284C60.203 17.2481 60.1806 17.206 60.1679 17.1607C60.1551 17.1153 60.1524 17.0677 60.1599 17.0211ZM65.423 22.7264C67.3281 22.7264 69.1903 23.2913 70.7743 24.3496C72.3583 25.408 73.5928 26.9124 74.3219 28.6724C75.0509 30.4324 75.2416 32.3691 74.87 34.2375C74.4983 36.106 73.581 37.8222 72.2339 39.1693C70.8868 40.5164 69.1706 41.4337 67.3021 41.8054C65.4337 42.177 63.497 41.9863 61.737 41.2573C59.977 40.5282 58.4726 39.2937 57.4142 37.7097C56.3559 36.1257 55.791 34.2634 55.791 32.3584C55.791 31.0935 56.0401 29.841 56.5242 28.6724C57.0082 27.5037 57.7177 26.4419 58.6121 25.5475C59.5066 24.6531 60.5684 23.9436 61.737 23.4595C62.9056 22.9755 64.1581 22.7263 65.423 22.7264Z" fill="black"/>
<path d="M60.7495 34.8645H62.915V37.0301C62.9154 37.3914 63.0591 37.7377 63.3146 37.9932C63.57 38.2486 63.9164 38.3923 64.2777 38.3927H66.5683C66.9296 38.3923 67.2759 38.2487 67.5314 37.9932C67.7869 37.7377 67.9306 37.3914 67.931 37.0301V34.8645H70.0966C70.4579 34.8641 70.8042 34.7204 71.0597 34.465C71.3152 34.2095 71.4589 33.8631 71.4593 33.5019V31.2112C71.4589 30.8499 71.3152 30.5035 71.0597 30.2481C70.8042 29.9926 70.4579 29.8489 70.0966 29.8485H67.931V27.683C67.9306 27.3217 67.7869 26.9753 67.5314 26.7199C67.276 26.4644 66.9296 26.3207 66.5683 26.3203H64.2777C63.9164 26.3207 63.5701 26.4644 63.3146 26.7199C63.0591 26.9753 62.9154 27.3217 62.915 27.683V29.8485H60.7495C60.3882 29.8489 60.0418 29.9926 59.7863 30.2481C59.5308 30.5035 59.3871 30.8499 59.3867 31.2112V33.5019C59.3871 33.8631 59.5308 34.2095 59.7863 34.465C60.0418 34.7204 60.3882 34.8641 60.7495 34.8645ZM61.1954 31.6572H63.3609C63.7222 31.6568 64.0686 31.5131 64.324 31.2577C64.5795 31.0022 64.7232 30.6558 64.7236 30.2946V28.1289H66.1223V30.2945C66.1227 30.6558 66.2664 31.0022 66.5219 31.2576C66.7773 31.5131 67.1237 31.6568 67.485 31.6572H69.6506V33.0559H67.4851C67.1238 33.0563 66.7775 33.1999 66.522 33.4554C66.2666 33.7109 66.1229 34.0572 66.1225 34.4185V36.5841H64.7238V34.4186C64.7234 34.0573 64.5797 33.7109 64.3242 33.4554C64.0687 33.2 63.7223 33.0563 63.361 33.0559H61.1954L61.1954 31.6572Z" fill="black"/>
</svg>
