<svg width="61" height="60" viewBox="0 0 61 60" fill="none" xmlns="http://www.w3.org/2000/svg">
<path opacity="0.21" d="M37.7627 0C50.4651 0.000205242 60.7627 10.2976 60.7627 23V37C60.7627 49.7024 50.4651 59.9998 37.7627 60H23.2705C10.568 60 0.270508 49.7025 0.270508 37V23C0.270508 10.2975 10.568 0 23.2705 0H37.7627Z" fill="#FEC53D"/>
<path fill-rule="evenodd" clip-rule="evenodd" d="M15.3936 24.3164L28.3998 31.7645C28.5398 31.8447 28.6867 31.9026 28.8362 31.9394V46.3846L16.3212 39.0384C15.7462 38.701 15.3936 38.0875 15.3936 37.4248V24.3164ZM45.6397 24.1172V37.4236C45.6397 38.0863 45.287 38.6997 44.7121 39.0372L32.1971 46.3834V31.8116C32.2275 31.7965 32.2578 31.7804 32.2877 31.7633L45.6397 24.1172Z" fill="#FEC53D"/>
<path opacity="0.499209" fill-rule="evenodd" clip-rule="evenodd" d="M15.8018 20.7014C15.9606 20.5024 16.1611 20.3343 16.3949 20.2108L29.6275 13.2201C30.183 12.9266 30.8493 12.9266 31.4048 13.2201L44.6374 20.2108C44.8176 20.306 44.9781 20.4277 45.1149 20.5697L30.6068 28.8778C30.5114 28.9325 30.4234 28.995 30.3433 29.064C30.2631 28.995 30.1752 28.9325 30.0798 28.8778L15.8018 20.7014Z" fill="#FEC53D"/>
</svg>
