<svg width="62" height="60" viewBox="0 0 62 60" fill="none" xmlns="http://www.w3.org/2000/svg">
  <path opacity="0.21" d="M38.2627 0C50.9651 0.000205242 61.2627 10.2976 61.2627 23V37C61.2627 49.7024 50.9651 59.9998 38.2627 60H23.7705C11.068 60 0.770508 49.7025 0.770508 37V23C0.770508 10.2975 11.068 0 23.7705 0H38.2627Z" fill="#4AD991"/>

  <g transform="translate(16, 16)"> 
    <path d="M4.03896 24.8889H27.5635C28.4297 24.8889 29.1319 25.5853 29.1319 26.4444C29.1319 27.3036 28.4297 28 27.5635 28H2.47065C1.6045 28 0.902344 27.3036 0.902344 26.4444V1.55556C0.902344 0.696446 1.6045 0 2.47065 0C3.3368 0 4.03896 0.696446 4.03896 1.55556V24.8889Z" fill="#4AD991"/>
    <path opacity="0.5" d="M9.88847 18.176C9.29608 18.8027 8.3036 18.8345 7.67171 18.2469C7.03982 17.6593 7.0078 16.6749 7.6002 16.0481L13.4813 9.82591C14.0543 9.21977 15.0063 9.1672 15.6435 9.70653L20.2853 13.6353L26.3331 6.03704C26.8698 5.36274 27.856 5.24766 28.5358 5.78C29.2156 6.31235 29.3316 7.29052 28.7949 7.96482L21.7376 16.8315C21.1863 17.524 20.1653 17.6237 19.4886 17.0509L14.746 13.0367L9.88847 18.176Z" fill="#4AD991"/>
  </g>
</svg>