<svg width="61" height="60" viewBox="0 0 61 60" fill="none" xmlns="http://www.w3.org/2000/svg">
<path opacity="0.21" d="M37.4922 0C50.1946 0.000205242 60.4922 10.2976 60.4922 23V37C60.4922 49.7024 50.1946 59.9998 37.4922 60H23C10.2975 60 0 49.7025 0 37V23C0 10.2975 10.2975 0 23 0H37.4922Z" fill="#8280FF"/>
<path opacity="0.587821" d="M38.3125 24.668C40.5396 24.6682 42.3447 26.459 42.3447 28.668C42.3447 30.877 40.5396 32.6677 38.3125 32.668C36.0853 32.668 34.2793 30.8771 34.2793 28.668C34.2793 26.4588 36.0853 24.668 38.3125 24.668ZM26.2139 18C29.1834 18 31.5906 20.3876 31.5908 23.333C31.5908 26.2785 29.1835 28.667 26.2139 28.667C23.2442 28.6669 20.8369 26.2785 20.8369 23.333C20.8371 20.3877 23.2444 18.0001 26.2139 18Z" fill="#8280FF"/>
<path d="M26.1913 31.332C32.6273 31.3321 37.9154 34.3896 38.3095 40.9316C38.3252 41.1922 38.3091 41.9988 37.2997 41.999H15.0927C14.7554 41.9984 14.0877 41.2772 14.1161 40.9307C14.6373 34.5673 19.8446 31.332 26.1913 31.332ZM37.7772 33.999C42.3563 34.0488 46.0955 36.3433 46.3769 41.1963C46.3882 41.392 46.3763 41.9961 45.6474 41.9961H40.4628C40.4625 38.9958 39.4637 36.2268 37.7772 33.999Z" fill="#8280FF"/>
</svg>
